<svg width="312" height="312" viewBox="0 0 312 312" fill="none" xmlns="http://www.w3.org/2000/svg">
<g filter="url(#filter0_d_109_19)">
<rect x="15" y="156.421" width="200" height="200" rx="19" transform="rotate(-45 15 156.421)" fill="white"/>
</g>
<g clip-path="url(#clip0_109_19)">
<path d="M163.75 145.667C163.75 149.092 165.111 152.378 167.533 154.8C169.956 157.222 173.241 158.583 176.667 158.583C180.092 158.583 183.378 157.222 185.8 154.8C188.222 152.378 189.583 149.092 189.583 145.667C189.583 142.241 188.222 138.956 185.8 136.533C183.378 134.111 180.092 132.75 176.667 132.75C173.241 132.75 169.956 134.111 167.533 136.533C165.111 138.956 163.75 142.241 163.75 145.667Z" stroke="#99E7EC" stroke-width="4" stroke-linecap="round" stroke-linejoin="round"/>
<path d="M189.583 168.917C189.583 171.657 190.672 174.285 192.61 176.223C194.548 178.161 197.176 179.25 199.917 179.25C202.657 179.25 205.286 178.161 207.223 176.223C209.161 174.285 210.25 171.657 210.25 168.917C210.25 166.176 209.161 163.548 207.223 161.61C205.286 159.672 202.657 158.583 199.917 158.583C197.176 158.583 194.548 159.672 192.61 161.61C190.672 163.548 189.583 166.176 189.583 168.917Z" stroke="#99E7EC" stroke-width="4" stroke-linecap="round" stroke-linejoin="round"/>
<path d="M167.625 136.625L185.708 154.708" stroke="#99E7EC" stroke-width="4" stroke-linecap="round" stroke-linejoin="round"/>
<path d="M206.375 162.458L193.458 175.375" stroke="#99E7EC" stroke-width="4" stroke-linecap="round" stroke-linejoin="round"/>
</g>
<g clip-path="url(#clip1_109_19)">
<path d="M123.563 187.534V147.465C123.563 142.815 125.084 138.357 127.791 135.069C130.499 131.781 134.171 129.934 137.999 129.934C141.828 129.934 145.5 131.781 148.208 135.069C150.915 138.357 152.436 142.815 152.436 147.465V187.534C152.436 192.184 150.915 196.642 148.208 199.93C145.5 203.218 141.828 205.065 137.999 205.065C134.171 205.065 130.499 203.218 127.791 199.93C125.084 196.642 123.563 192.184 123.563 187.534Z" stroke="#99E7EC" stroke-width="4" stroke-linecap="round" stroke-linejoin="round"/>
<path d="M123.563 167.5H152.437" stroke="#99E7EC" stroke-width="5" stroke-linecap="round" stroke-linejoin="round"/>
</g>
<defs>
<filter id="filter0_d_109_19" x="0.87006" y="0.870117" width="311.103" height="311.103" filterUnits="userSpaceOnUse" color-interpolation-filters="sRGB">
<feFlood flood-opacity="0" result="BackgroundImageFix"/>
<feColorMatrix in="SourceAlpha" type="matrix" values="0 0 0 0 0 0 0 0 0 0 0 0 0 0 0 0 0 0 127 0" result="hardAlpha"/>
<feMorphology radius="2" operator="dilate" in="SourceAlpha" result="effect1_dropShadow_109_19"/>
<feOffset/>
<feGaussianBlur stdDeviation="10"/>
<feComposite in2="hardAlpha" operator="out"/>
<feColorMatrix type="matrix" values="0 0 0 0 0 0 0 0 0 0.678431 0 0 0 0 0.709804 0 0 0 0.3 0"/>
<feBlend mode="normal" in2="BackgroundImageFix" result="effect1_dropShadow_109_19"/>
<feBlend mode="normal" in="SourceGraphic" in2="effect1_dropShadow_109_19" result="shape"/>
</filter>
<clipPath id="clip0_109_19">
<rect width="62" height="62" fill="white" transform="translate(156 125)"/>
</clipPath>
<clipPath id="clip1_109_19">
<rect width="85" height="70" fill="white" transform="matrix(0 -1 1 0 103 210)"/>
</clipPath>
</defs>
</svg>
