<svg id="wave" style="transform:rotate(180deg); transition: 0.3s" viewBox="0 0 1440 280" version="1.1" xmlns="http://www.w3.org/2000/svg"><defs><linearGradient id="sw-gradient-0" x1="0" x2="0" y1="1" y2="0"><stop stop-color="rgba(174.749, 115.983, 255, 1)" offset="0%"></stop><stop stop-color="rgba(175.009, 255, 255, 1)" offset="100%"></stop></linearGradient></defs><path style="transform:translate(0, 0px); opacity:1" fill="url(#sw-gradient-0)" d="M0,196L80,168C160,140,320,84,480,51.3C640,19,800,9,960,9.3C1120,9,1280,19,1440,32.7C1600,47,1760,65,1920,79.3C2080,93,2240,103,2400,102.7C2560,103,2720,93,2880,79.3C3040,65,3200,47,3360,74.7C3520,103,3680,177,3840,210C4000,243,4160,233,4320,196C4480,159,4640,93,4800,84C4960,75,5120,121,5280,158.7C5440,196,5600,224,5760,228.7C5920,233,6080,215,6240,177.3C6400,140,6560,84,6720,60.7C6880,37,7040,47,7200,51.3C7360,56,7520,56,7680,70C7840,84,8000,112,8160,130.7C8320,149,8480,159,8640,144.7C8800,131,8960,93,9120,79.3C9280,65,9440,75,9600,74.7C9760,75,9920,65,10080,60.7C10240,56,10400,56,10560,84C10720,112,10880,168,11040,196C11200,224,11360,224,11440,224L11520,224L11520,280L11440,280C11360,280,11200,280,11040,280C10880,280,10720,280,10560,280C10400,280,10240,280,10080,280C9920,280,9760,280,9600,280C9440,280,9280,280,9120,280C8960,280,8800,280,8640,280C8480,280,8320,280,8160,280C8000,280,7840,280,7680,280C7520,280,7360,280,7200,280C7040,280,6880,280,6720,280C6560,280,6400,280,6240,280C6080,280,5920,280,5760,280C5600,280,5440,280,5280,280C5120,280,4960,280,4800,280C4640,280,4480,280,4320,280C4160,280,4000,280,3840,280C3680,280,3520,280,3360,280C3200,280,3040,280,2880,280C2720,280,2560,280,2400,280C2240,280,2080,280,1920,280C1760,280,1600,280,1440,280C1280,280,1120,280,960,280C800,280,640,280,480,280C320,280,160,280,80,280L0,280Z"></path></svg>