<?xml version="1.0" standalone="no"?>
<svg xmlns:xlink="http://www.w3.org/1999/xlink" id="wave" style="transform:rotate(180deg); transition: 0.3s" viewBox="0 0 1440 490" version="1.1" xmlns="http://www.w3.org/2000/svg"><defs><linearGradient id="sw-gradient-0" x1="0" x2="0" y1="1" y2="0"><stop stop-color="rgba(168.1, 104.465, 255, 1)" offset="0%"/><stop stop-color="rgba(11, 255, 255, 1)" offset="100%"/></linearGradient></defs><path style="transform:translate(0, 0px); opacity:1" fill="url(#sw-gradient-0)" d="M0,147L26.7,171.5C53.3,196,107,245,160,285.8C213.3,327,267,359,320,351.2C373.3,343,427,294,480,245C533.3,196,587,147,640,155.2C693.3,163,747,229,800,236.8C853.3,245,907,196,960,179.7C1013.3,163,1067,180,1120,220.5C1173.3,261,1227,327,1280,326.7C1333.3,327,1387,261,1440,212.3C1493.3,163,1547,131,1600,106.2C1653.3,82,1707,65,1760,122.5C1813.3,180,1867,310,1920,334.8C1973.3,359,2027,278,2080,228.7C2133.3,180,2187,163,2240,130.7C2293.3,98,2347,49,2400,49C2453.3,49,2507,98,2560,147C2613.3,196,2667,245,2720,294C2773.3,343,2827,392,2880,359.3C2933.3,327,2987,212,3040,212.3C3093.3,212,3147,327,3200,375.7C3253.3,425,3307,408,3360,334.8C3413.3,261,3467,131,3520,98C3573.3,65,3627,131,3680,196C3733.3,261,3787,327,3813,359.3L3840,392L3840,490L3813.3,490C3786.7,490,3733,490,3680,490C3626.7,490,3573,490,3520,490C3466.7,490,3413,490,3360,490C3306.7,490,3253,490,3200,490C3146.7,490,3093,490,3040,490C2986.7,490,2933,490,2880,490C2826.7,490,2773,490,2720,490C2666.7,490,2613,490,2560,490C2506.7,490,2453,490,2400,490C2346.7,490,2293,490,2240,490C2186.7,490,2133,490,2080,490C2026.7,490,1973,490,1920,490C1866.7,490,1813,490,1760,490C1706.7,490,1653,490,1600,490C1546.7,490,1493,490,1440,490C1386.7,490,1333,490,1280,490C1226.7,490,1173,490,1120,490C1066.7,490,1013,490,960,490C906.7,490,853,490,800,490C746.7,490,693,490,640,490C586.7,490,533,490,480,490C426.7,490,373,490,320,490C266.7,490,213,490,160,490C106.7,490,53,490,27,490L0,490Z"/></svg>