<?xml version="1.0" standalone="no"?>
<!DOCTYPE svg PUBLIC "-//W3C//DTD SVG 20010904//EN"
 "http://www.w3.org/TR/2001/REC-SVG-20010904/DTD/svg10.dtd">
<svg version="1.0" xmlns="http://www.w3.org/2000/svg"
 width="221.000000pt" height="221.000000pt" viewBox="0 0 221.000000 221.000000"
 preserveAspectRatio="xMidYMid meet">
<metadata>
Created by potrace 1.14, written by Peter Selinger 2001-2017
</metadata>
<g transform="translate(0.000000,221.000000) scale(0.100000,-0.100000)"
fill="#000000" stroke="none">
<path d="M595 1950 c-2 -3 -18 -7 -37 -8 -18 -1 -42 -6 -53 -11 -153 -70 -155
-71 -210 -129 -40 -41 -92 -128 -87 -144 1 -5 -2 -8 -8 -8 -6 0 -9 -3 -9 -7 1
-5 0 -10 -1 -13 -18 -47 -24 -205 -10 -270 18 -85 43 -160 52 -160 5 0 7 -4 4
-9 -3 -4 3 -27 14 -49 11 -23 20 -46 20 -52 0 -5 4 -10 8 -10 4 0 13 -12 19
-27 16 -40 44 -83 71 -110 12 -13 22 -27 22 -32 0 -4 22 -32 50 -62 27 -30 50
-57 50 -61 0 -5 6 -8 14 -8 8 0 18 -9 21 -20 3 -11 9 -20 13 -20 4 0 30 -21
57 -46 68 -63 161 -134 174 -134 6 0 11 -3 11 -7 0 -5 27 -24 60 -43 33 -19
60 -38 60 -42 0 -5 7 -8 15 -8 8 0 36 -13 62 -28 71 -41 183 -94 215 -101 4
-1 32 -13 63 -26 30 -14 57 -25 60 -25 11 0 26 -5 60 -19 17 -7 42 -15 57 -18
15 -3 26 -8 23 -12 -2 -4 6 -7 18 -8 12 0 38 -3 57 -6 l35 -6 -32 14 c-18 8
-38 16 -45 17 -7 2 -16 7 -19 11 -3 4 -16 9 -27 10 -12 1 -22 5 -22 9 0 4 -8
8 -17 8 -10 0 -27 7 -37 15 -10 8 -23 12 -27 9 -5 -3 -9 -1 -9 4 0 4 -16 14
-35 22 -19 8 -35 18 -35 24 0 5 -3 6 -6 3 -4 -4 -20 3 -35 14 -16 11 -29 18
-29 15 0 -9 -268 160 -280 176 -3 4 -21 17 -40 31 -44 29 -69 50 -125 103 -24
23 -46 39 -49 36 -4 -3 -6 2 -6 12 0 9 -4 14 -10 11 -5 -3 -10 -3 -10 2 0 4
-19 29 -43 54 -75 81 -105 118 -99 124 3 3 0 5 -6 5 -7 0 -12 7 -12 16 0 8 -4
13 -9 10 -5 -3 -12 2 -15 12 -4 9 -18 35 -31 57 -24 39 -80 150 -96 190 -16
39 -38 125 -32 125 3 0 1 6 -5 13 -5 6 -9 56 -8 112 1 84 5 107 25 145 40 75
127 146 205 167 44 12 158 14 207 4 67 -15 164 -64 199 -101 16 -17 31 -30 34
-28 2 2 19 -15 38 -37 72 -85 79 -89 96 -50 7 14 19 28 27 31 8 4 13 9 10 14
-7 11 85 93 151 132 94 57 181 74 299 56 53 -8 145 -46 145 -60 0 -4 5 -8 11
-8 25 0 116 -119 102 -134 -4 -3 -2 -6 4 -6 6 0 14 -17 19 -37 9 -45 14 -194
6 -207 -3 -5 -7 -26 -9 -45 -4 -49 -7 -64 -16 -78 -5 -7 -5 -13 0 -13 4 0 1
-5 -7 -10 -10 -7 -11 -10 -2 -10 8 0 9 -5 3 -17 -11 -21 -23 -56 -21 -62 1 -2
-3 -7 -10 -11 -6 -4 -12 -13 -13 -21 -2 -8 -6 -20 -10 -26 -5 -7 -5 -13 -2
-13 4 0 -3 -12 -14 -26 -12 -15 -21 -31 -21 -35 0 -10 -63 -111 -82 -130 -34
-36 -40 -47 -23 -45 8 1 17 6 18 11 1 5 19 25 39 45 21 20 38 42 38 48 0 6 6
15 13 19 17 11 80 103 70 103 -4 0 -3 4 2 8 20 13 53 80 80 159 43 127 48 153
47 278 0 113 -1 125 -27 180 -10 22 -17 43 -17 48 1 4 -3 7 -8 7 -6 0 -10 5
-10 11 0 18 -140 149 -158 149 -5 0 -26 8 -48 19 -64 30 -138 43 -222 38 -44
-2 -83 -7 -89 -10 -5 -3 -21 -8 -35 -11 -37 -6 -142 -57 -151 -73 -4 -7 -14
-13 -21 -13 -6 0 -27 -16 -46 -35 -38 -39 -54 -40 -90 -7 -14 12 -43 35 -65
50 -22 15 -42 30 -45 33 -12 14 -178 71 -220 75 -78 8 -122 9 -125 4z"/>
<path d="M695 1580 c3 -5 2 -10 -3 -10 -9 0 -11 -6 -14 -62 -2 -21 -6 -38 -11
-38 -4 0 -6 -4 -3 -8 3 -5 -5 -15 -19 -22 -26 -14 -23 -42 3 -33 23 9 53 44
46 54 -3 5 0 9 7 9 8 0 9 3 0 13 -6 8 -8 17 -5 20 11 11 13 87 3 87 -6 0 -7
-4 -4 -10z"/>
<path d="M474 1528 c2 -59 18 -98 46 -116 14 -8 21 -8 29 2 8 10 5 16 -13 26
-25 13 -42 53 -31 70 4 6 1 10 -6 10 -8 0 -8 4 -1 13 7 8 7 17 -2 30 -20 26
-23 21 -22 -35z"/>
<path d="M573 1513 c0 -38 -1 -79 -3 -93 -1 -14 1 -37 4 -52 4 -16 2 -28 -3
-28 -6 0 -8 -6 -5 -14 3 -8 13 -13 22 -12 15 3 17 19 17 134 0 114 -2 132 -16
132 -12 0 -15 -13 -16 -67z"/>
</g>
</svg>
